<?xml version="1.0" encoding="UTF-8" ?>
<svg version="1.1" width="64" height="64" xmlns="http://www.w3.org/2000/svg" shape-rendering="crispEdges">
<rect x="20" y="2" width="2" height="2" fill="#AC3232" />
<rect x="22" y="2" width="2" height="2" fill="#AC3232" />
<rect x="40" y="2" width="2" height="2" fill="#AC3232" />
<rect x="42" y="2" width="2" height="2" fill="#AC3232" />
<rect x="20" y="4" width="2" height="2" fill="#AC3232" />
<rect x="22" y="4" width="2" height="2" fill="#AC3232" />
<rect x="40" y="4" width="2" height="2" fill="#AC3232" />
<rect x="42" y="4" width="2" height="2" fill="#AC3232" />
<rect x="20" y="6" width="2" height="2" fill="#AC3232" />
<rect x="22" y="6" width="2" height="2" fill="#AC3232" />
<rect x="24" y="6" width="2" height="2" fill="#AC3232" />
<rect x="28" y="6" width="2" height="2" fill="#AC3232" />
<rect x="30" y="6" width="2" height="2" fill="#AC3232" />
<rect x="32" y="6" width="2" height="2" fill="#AC3232" />
<rect x="34" y="6" width="2" height="2" fill="#AC3232" />
<rect x="38" y="6" width="2" height="2" fill="#AC3232" />
<rect x="40" y="6" width="2" height="2" fill="#AC3232" />
<rect x="42" y="6" width="2" height="2" fill="#AC3232" />
<rect x="6" y="8" width="2" height="2" fill="#AC3232" />
<rect x="8" y="8" width="2" height="2" fill="#AC3232" />
<rect x="22" y="8" width="2" height="2" fill="#AC3232" />
<rect x="24" y="8" width="2" height="2" fill="#AC3232" />
<rect x="26" y="8" width="2" height="2" fill="#AC3232" />
<rect x="28" y="8" width="2" height="2" fill="#AC3232" />
<rect x="30" y="8" width="2" height="2" fill="#AC3232" />
<rect x="32" y="8" width="2" height="2" fill="#AC3232" />
<rect x="34" y="8" width="2" height="2" fill="#AC3232" />
<rect x="36" y="8" width="2" height="2" fill="#AC3232" />
<rect x="38" y="8" width="2" height="2" fill="#AC3232" />
<rect x="40" y="8" width="2" height="2" fill="#AC3232" />
<rect x="54" y="8" width="2" height="2" fill="#AC3232" />
<rect x="56" y="8" width="2" height="2" fill="#AC3232" />
<rect x="4" y="10" width="2" height="2" fill="#AC3232" />
<rect x="6" y="10" width="2" height="2" fill="#AC3232" />
<rect x="8" y="10" width="2" height="2" fill="#AC3232" />
<rect x="24" y="10" width="2" height="2" fill="#AC3232" />
<rect x="26" y="10" width="2" height="2" fill="#AC3232" />
<rect x="28" y="10" width="2" height="2" fill="#AC3232" />
<rect x="34" y="10" width="2" height="2" fill="#AC3232" />
<rect x="36" y="10" width="2" height="2" fill="#AC3232" />
<rect x="38" y="10" width="2" height="2" fill="#AC3232" />
<rect x="54" y="10" width="2" height="2" fill="#AC3232" />
<rect x="56" y="10" width="2" height="2" fill="#AC3232" />
<rect x="58" y="10" width="2" height="2" fill="#AC3232" />
<rect x="4" y="12" width="2" height="2" fill="#AC3232" />
<rect x="6" y="12" width="2" height="2" fill="#AC3232" />
<rect x="22" y="12" width="2" height="2" fill="#AC3232" />
<rect x="24" y="12" width="2" height="2" fill="#AC3232" />
<rect x="26" y="12" width="2" height="2" fill="#AC3232" />
<rect x="36" y="12" width="2" height="2" fill="#AC3232" />
<rect x="38" y="12" width="2" height="2" fill="#AC3232" />
<rect x="40" y="12" width="2" height="2" fill="#AC3232" />
<rect x="56" y="12" width="2" height="2" fill="#AC3232" />
<rect x="58" y="12" width="2" height="2" fill="#AC3232" />
<rect x="4" y="14" width="2" height="2" fill="#AC3232" />
<rect x="6" y="14" width="2" height="2" fill="#AC3232" />
<rect x="22" y="14" width="2" height="2" fill="#AC3232" />
<rect x="24" y="14" width="2" height="2" fill="#AC3232" />
<rect x="38" y="14" width="2" height="2" fill="#AC3232" />
<rect x="40" y="14" width="2" height="2" fill="#AC3232" />
<rect x="56" y="14" width="2" height="2" fill="#AC3232" />
<rect x="58" y="14" width="2" height="2" fill="#AC3232" />
<rect x="4" y="16" width="2" height="2" fill="#AC3232" />
<rect x="6" y="16" width="2" height="2" fill="#AC3232" />
<rect x="22" y="16" width="2" height="2" fill="#AC3232" />
<rect x="24" y="16" width="2" height="2" fill="#AC3232" />
<rect x="26" y="16" width="2" height="2" fill="#AC3232" />
<rect x="28" y="16" width="2" height="2" fill="#AC3232" />
<rect x="30" y="16" width="2" height="2" fill="#AC3232" />
<rect x="32" y="16" width="2" height="2" fill="#AC3232" />
<rect x="34" y="16" width="2" height="2" fill="#AC3232" />
<rect x="36" y="16" width="2" height="2" fill="#AC3232" />
<rect x="38" y="16" width="2" height="2" fill="#AC3232" />
<rect x="40" y="16" width="2" height="2" fill="#AC3232" />
<rect x="56" y="16" width="2" height="2" fill="#AC3232" />
<rect x="58" y="16" width="2" height="2" fill="#AC3232" />
<rect x="4" y="18" width="2" height="2" fill="#AC3232" />
<rect x="6" y="18" width="2" height="2" fill="#AC3232" />
<rect x="18" y="18" width="2" height="2" fill="#AC3232" />
<rect x="20" y="18" width="2" height="2" fill="#AC3232" />
<rect x="22" y="18" width="2" height="2" fill="#AC3232" />
<rect x="24" y="18" width="2" height="2" fill="#AC3232" />
<rect x="26" y="18" width="2" height="2" fill="#AC3232" />
<rect x="28" y="18" width="2" height="2" fill="#AC3232" />
<rect x="30" y="18" width="2" height="2" fill="#AC3232" />
<rect x="32" y="18" width="2" height="2" fill="#AC3232" />
<rect x="34" y="18" width="2" height="2" fill="#AC3232" />
<rect x="36" y="18" width="2" height="2" fill="#AC3232" />
<rect x="38" y="18" width="2" height="2" fill="#AC3232" />
<rect x="40" y="18" width="2" height="2" fill="#AC3232" />
<rect x="42" y="18" width="2" height="2" fill="#AC3232" />
<rect x="44" y="18" width="2" height="2" fill="#AC3232" />
<rect x="56" y="18" width="2" height="2" fill="#AC3232" />
<rect x="58" y="18" width="2" height="2" fill="#AC3232" />
<rect x="4" y="20" width="2" height="2" fill="#AC3232" />
<rect x="6" y="20" width="2" height="2" fill="#AC3232" />
<rect x="8" y="20" width="2" height="2" fill="#AC3232" />
<rect x="12" y="20" width="2" height="2" fill="#AC3232" />
<rect x="14" y="20" width="2" height="2" fill="#AC3232" />
<rect x="16" y="20" width="2" height="2" fill="#AC3232" />
<rect x="18" y="20" width="2" height="2" fill="#AC3232" />
<rect x="20" y="20" width="2" height="2" fill="#AC3232" />
<rect x="22" y="20" width="2" height="2" fill="#AC3232" />
<rect x="24" y="20" width="2" height="2" fill="#AC3232" />
<rect x="38" y="20" width="2" height="2" fill="#AC3232" />
<rect x="40" y="20" width="2" height="2" fill="#AC3232" />
<rect x="42" y="20" width="2" height="2" fill="#AC3232" />
<rect x="44" y="20" width="2" height="2" fill="#AC3232" />
<rect x="46" y="20" width="2" height="2" fill="#AC3232" />
<rect x="48" y="20" width="2" height="2" fill="#AC3232" />
<rect x="50" y="20" width="2" height="2" fill="#AC3232" />
<rect x="54" y="20" width="2" height="2" fill="#AC3232" />
<rect x="56" y="20" width="2" height="2" fill="#AC3232" />
<rect x="58" y="20" width="2" height="2" fill="#AC3232" />
<rect x="6" y="22" width="2" height="2" fill="#AC3232" />
<rect x="8" y="22" width="2" height="2" fill="#AC3232" />
<rect x="10" y="22" width="2" height="2" fill="#AC3232" />
<rect x="12" y="22" width="2" height="2" fill="#AC3232" />
<rect x="14" y="22" width="2" height="2" fill="#AC3232" />
<rect x="16" y="22" width="2" height="2" fill="#AC3232" />
<rect x="46" y="22" width="2" height="2" fill="#AC3232" />
<rect x="48" y="22" width="2" height="2" fill="#AC3232" />
<rect x="50" y="22" width="2" height="2" fill="#AC3232" />
<rect x="52" y="22" width="2" height="2" fill="#AC3232" />
<rect x="54" y="22" width="2" height="2" fill="#AC3232" />
<rect x="56" y="22" width="2" height="2" fill="#AC3232" />
<rect x="8" y="24" width="2" height="2" fill="#AC3232" />
<rect x="10" y="24" width="2" height="2" fill="#AC3232" />
<rect x="12" y="24" width="2" height="2" fill="#AC3232" />
<rect x="14" y="24" width="2" height="2" fill="#AC3232" />
<rect x="48" y="24" width="2" height="2" fill="#AC3232" />
<rect x="50" y="24" width="2" height="2" fill="#AC3232" />
<rect x="52" y="24" width="2" height="2" fill="#AC3232" />
<rect x="54" y="24" width="2" height="2" fill="#AC3232" />
<rect x="12" y="26" width="2" height="2" fill="#AC3232" />
<rect x="14" y="26" width="2" height="2" fill="#AC3232" />
<rect x="48" y="26" width="2" height="2" fill="#AC3232" />
<rect x="50" y="26" width="2" height="2" fill="#AC3232" />
<rect x="12" y="28" width="2" height="2" fill="#AC3232" />
<rect x="14" y="28" width="2" height="2" fill="#AC3232" />
<rect x="48" y="28" width="2" height="2" fill="#AC3232" />
<rect x="50" y="28" width="2" height="2" fill="#AC3232" />
<rect x="12" y="30" width="2" height="2" fill="#AC3232" />
<rect x="14" y="30" width="2" height="2" fill="#AC3232" />
<rect x="30" y="30" width="2" height="2" fill="#AC3232" />
<rect x="32" y="30" width="2" height="2" fill="#AC3232" />
<rect x="48" y="30" width="2" height="2" fill="#AC3232" />
<rect x="50" y="30" width="2" height="2" fill="#AC3232" />
<rect x="12" y="32" width="2" height="2" fill="#AC3232" />
<rect x="14" y="32" width="2" height="2" fill="#AC3232" />
<rect x="30" y="32" width="2" height="2" fill="#AC3232" />
<rect x="32" y="32" width="2" height="2" fill="#AC3232" />
<rect x="48" y="32" width="2" height="2" fill="#AC3232" />
<rect x="50" y="32" width="2" height="2" fill="#AC3232" />
<rect x="2" y="34" width="2" height="2" fill="#AC3232" />
<rect x="4" y="34" width="2" height="2" fill="#AC3232" />
<rect x="6" y="34" width="2" height="2" fill="#AC3232" />
<rect x="8" y="34" width="2" height="2" fill="#AC3232" />
<rect x="10" y="34" width="2" height="2" fill="#AC3232" />
<rect x="12" y="34" width="2" height="2" fill="#AC3232" />
<rect x="14" y="34" width="2" height="2" fill="#AC3232" />
<rect x="30" y="34" width="2" height="2" fill="#AC3232" />
<rect x="32" y="34" width="2" height="2" fill="#AC3232" />
<rect x="48" y="34" width="2" height="2" fill="#AC3232" />
<rect x="50" y="34" width="2" height="2" fill="#AC3232" />
<rect x="52" y="34" width="2" height="2" fill="#AC3232" />
<rect x="54" y="34" width="2" height="2" fill="#AC3232" />
<rect x="56" y="34" width="2" height="2" fill="#AC3232" />
<rect x="58" y="34" width="2" height="2" fill="#AC3232" />
<rect x="60" y="34" width="2" height="2" fill="#AC3232" />
<rect x="0" y="36" width="2" height="2" fill="#AC3232" />
<rect x="2" y="36" width="2" height="2" fill="#AC3232" />
<rect x="4" y="36" width="2" height="2" fill="#AC3232" />
<rect x="6" y="36" width="2" height="2" fill="#AC3232" />
<rect x="8" y="36" width="2" height="2" fill="#AC3232" />
<rect x="10" y="36" width="2" height="2" fill="#AC3232" />
<rect x="12" y="36" width="2" height="2" fill="#AC3232" />
<rect x="14" y="36" width="2" height="2" fill="#AC3232" />
<rect x="30" y="36" width="2" height="2" fill="#AC3232" />
<rect x="32" y="36" width="2" height="2" fill="#AC3232" />
<rect x="48" y="36" width="2" height="2" fill="#AC3232" />
<rect x="50" y="36" width="2" height="2" fill="#AC3232" />
<rect x="52" y="36" width="2" height="2" fill="#AC3232" />
<rect x="54" y="36" width="2" height="2" fill="#AC3232" />
<rect x="56" y="36" width="2" height="2" fill="#AC3232" />
<rect x="58" y="36" width="2" height="2" fill="#AC3232" />
<rect x="60" y="36" width="2" height="2" fill="#AC3232" />
<rect x="62" y="36" width="2" height="2" fill="#AC3232" />
<rect x="0" y="38" width="2" height="2" fill="#AC3232" />
<rect x="2" y="38" width="2" height="2" fill="#AC3232" />
<rect x="12" y="38" width="2" height="2" fill="#AC3232" />
<rect x="14" y="38" width="2" height="2" fill="#AC3232" />
<rect x="30" y="38" width="2" height="2" fill="#AC3232" />
<rect x="32" y="38" width="2" height="2" fill="#AC3232" />
<rect x="48" y="38" width="2" height="2" fill="#AC3232" />
<rect x="50" y="38" width="2" height="2" fill="#AC3232" />
<rect x="60" y="38" width="2" height="2" fill="#AC3232" />
<rect x="62" y="38" width="2" height="2" fill="#AC3232" />
<rect x="12" y="40" width="2" height="2" fill="#AC3232" />
<rect x="14" y="40" width="2" height="2" fill="#AC3232" />
<rect x="16" y="40" width="2" height="2" fill="#AC3232" />
<rect x="30" y="40" width="2" height="2" fill="#AC3232" />
<rect x="32" y="40" width="2" height="2" fill="#AC3232" />
<rect x="46" y="40" width="2" height="2" fill="#AC3232" />
<rect x="48" y="40" width="2" height="2" fill="#AC3232" />
<rect x="50" y="40" width="2" height="2" fill="#AC3232" />
<rect x="14" y="42" width="2" height="2" fill="#AC3232" />
<rect x="16" y="42" width="2" height="2" fill="#AC3232" />
<rect x="30" y="42" width="2" height="2" fill="#AC3232" />
<rect x="32" y="42" width="2" height="2" fill="#AC3232" />
<rect x="46" y="42" width="2" height="2" fill="#AC3232" />
<rect x="48" y="42" width="2" height="2" fill="#AC3232" />
<rect x="14" y="44" width="2" height="2" fill="#AC3232" />
<rect x="16" y="44" width="2" height="2" fill="#AC3232" />
<rect x="30" y="44" width="2" height="2" fill="#AC3232" />
<rect x="32" y="44" width="2" height="2" fill="#AC3232" />
<rect x="46" y="44" width="2" height="2" fill="#AC3232" />
<rect x="48" y="44" width="2" height="2" fill="#AC3232" />
<rect x="14" y="46" width="2" height="2" fill="#AC3232" />
<rect x="16" y="46" width="2" height="2" fill="#AC3232" />
<rect x="18" y="46" width="2" height="2" fill="#AC3232" />
<rect x="30" y="46" width="2" height="2" fill="#AC3232" />
<rect x="32" y="46" width="2" height="2" fill="#AC3232" />
<rect x="44" y="46" width="2" height="2" fill="#AC3232" />
<rect x="46" y="46" width="2" height="2" fill="#AC3232" />
<rect x="48" y="46" width="2" height="2" fill="#AC3232" />
<rect x="16" y="48" width="2" height="2" fill="#AC3232" />
<rect x="18" y="48" width="2" height="2" fill="#AC3232" />
<rect x="30" y="48" width="2" height="2" fill="#AC3232" />
<rect x="32" y="48" width="2" height="2" fill="#AC3232" />
<rect x="44" y="48" width="2" height="2" fill="#AC3232" />
<rect x="46" y="48" width="2" height="2" fill="#AC3232" />
<rect x="12" y="50" width="2" height="2" fill="#AC3232" />
<rect x="14" y="50" width="2" height="2" fill="#AC3232" />
<rect x="16" y="50" width="2" height="2" fill="#AC3232" />
<rect x="18" y="50" width="2" height="2" fill="#AC3232" />
<rect x="20" y="50" width="2" height="2" fill="#AC3232" />
<rect x="22" y="50" width="2" height="2" fill="#AC3232" />
<rect x="30" y="50" width="2" height="2" fill="#AC3232" />
<rect x="32" y="50" width="2" height="2" fill="#AC3232" />
<rect x="40" y="50" width="2" height="2" fill="#AC3232" />
<rect x="42" y="50" width="2" height="2" fill="#AC3232" />
<rect x="44" y="50" width="2" height="2" fill="#AC3232" />
<rect x="46" y="50" width="2" height="2" fill="#AC3232" />
<rect x="48" y="50" width="2" height="2" fill="#AC3232" />
<rect x="50" y="50" width="2" height="2" fill="#AC3232" />
<rect x="10" y="52" width="2" height="2" fill="#AC3232" />
<rect x="12" y="52" width="2" height="2" fill="#AC3232" />
<rect x="14" y="52" width="2" height="2" fill="#AC3232" />
<rect x="16" y="52" width="2" height="2" fill="#AC3232" />
<rect x="18" y="52" width="2" height="2" fill="#AC3232" />
<rect x="20" y="52" width="2" height="2" fill="#AC3232" />
<rect x="22" y="52" width="2" height="2" fill="#AC3232" />
<rect x="24" y="52" width="2" height="2" fill="#AC3232" />
<rect x="26" y="52" width="2" height="2" fill="#AC3232" />
<rect x="30" y="52" width="2" height="2" fill="#AC3232" />
<rect x="32" y="52" width="2" height="2" fill="#AC3232" />
<rect x="36" y="52" width="2" height="2" fill="#AC3232" />
<rect x="38" y="52" width="2" height="2" fill="#AC3232" />
<rect x="40" y="52" width="2" height="2" fill="#AC3232" />
<rect x="42" y="52" width="2" height="2" fill="#AC3232" />
<rect x="44" y="52" width="2" height="2" fill="#AC3232" />
<rect x="46" y="52" width="2" height="2" fill="#AC3232" />
<rect x="48" y="52" width="2" height="2" fill="#AC3232" />
<rect x="50" y="52" width="2" height="2" fill="#AC3232" />
<rect x="52" y="52" width="2" height="2" fill="#AC3232" />
<rect x="8" y="54" width="2" height="2" fill="#AC3232" />
<rect x="10" y="54" width="2" height="2" fill="#AC3232" />
<rect x="12" y="54" width="2" height="2" fill="#AC3232" />
<rect x="22" y="54" width="2" height="2" fill="#AC3232" />
<rect x="24" y="54" width="2" height="2" fill="#AC3232" />
<rect x="26" y="54" width="2" height="2" fill="#AC3232" />
<rect x="28" y="54" width="2" height="2" fill="#AC3232" />
<rect x="30" y="54" width="2" height="2" fill="#AC3232" />
<rect x="32" y="54" width="2" height="2" fill="#AC3232" />
<rect x="34" y="54" width="2" height="2" fill="#AC3232" />
<rect x="36" y="54" width="2" height="2" fill="#AC3232" />
<rect x="38" y="54" width="2" height="2" fill="#AC3232" />
<rect x="40" y="54" width="2" height="2" fill="#AC3232" />
<rect x="50" y="54" width="2" height="2" fill="#AC3232" />
<rect x="52" y="54" width="2" height="2" fill="#AC3232" />
<rect x="54" y="54" width="2" height="2" fill="#AC3232" />
<rect x="8" y="56" width="2" height="2" fill="#AC3232" />
<rect x="10" y="56" width="2" height="2" fill="#AC3232" />
<rect x="26" y="56" width="2" height="2" fill="#AC3232" />
<rect x="28" y="56" width="2" height="2" fill="#AC3232" />
<rect x="30" y="56" width="2" height="2" fill="#AC3232" />
<rect x="32" y="56" width="2" height="2" fill="#AC3232" />
<rect x="34" y="56" width="2" height="2" fill="#AC3232" />
<rect x="36" y="56" width="2" height="2" fill="#AC3232" />
<rect x="52" y="56" width="2" height="2" fill="#AC3232" />
<rect x="54" y="56" width="2" height="2" fill="#AC3232" />
<rect x="8" y="58" width="2" height="2" fill="#AC3232" />
<rect x="10" y="58" width="2" height="2" fill="#AC3232" />
<rect x="52" y="58" width="2" height="2" fill="#AC3232" />
<rect x="54" y="58" width="2" height="2" fill="#AC3232" />
<rect x="8" y="60" width="2" height="2" fill="#AC3232" />
<rect x="10" y="60" width="2" height="2" fill="#AC3232" />
<rect x="52" y="60" width="2" height="2" fill="#AC3232" />
<rect x="54" y="60" width="2" height="2" fill="#AC3232" />
</svg>