<?xml version="1.0" encoding="UTF-8" ?>
<svg version="1.1" width="64" height="64" xmlns="http://www.w3.org/2000/svg" shape-rendering="crispEdges">
<rect x="20" y="10" width="2" height="2" fill="#D0432C" />
<rect x="22" y="10" width="2" height="2" fill="#D0432C" />
<rect x="40" y="10" width="2" height="2" fill="#D0432C" />
<rect x="42" y="10" width="2" height="2" fill="#D0432C" />
<rect x="20" y="12" width="2" height="2" fill="#D0432C" />
<rect x="22" y="12" width="2" height="2" fill="#D0432C" />
<rect x="24" y="12" width="2" height="2" fill="#D0432C" />
<rect x="30" y="12" width="2" height="2" fill="#D0432C" />
<rect x="32" y="12" width="2" height="2" fill="#D0432C" />
<rect x="38" y="12" width="2" height="2" fill="#D0432C" />
<rect x="40" y="12" width="2" height="2" fill="#D0432C" />
<rect x="42" y="12" width="2" height="2" fill="#D0432C" />
<rect x="22" y="14" width="2" height="2" fill="#D0432C" />
<rect x="24" y="14" width="2" height="2" fill="#D0432C" />
<rect x="26" y="14" width="2" height="2" fill="#D0432C" />
<rect x="28" y="14" width="2" height="2" fill="#D0432C" />
<rect x="30" y="14" width="2" height="2" fill="#D0432C" />
<rect x="32" y="14" width="2" height="2" fill="#D0432C" />
<rect x="34" y="14" width="2" height="2" fill="#D0432C" />
<rect x="36" y="14" width="2" height="2" fill="#D0432C" />
<rect x="38" y="14" width="2" height="2" fill="#D0432C" />
<rect x="40" y="14" width="2" height="2" fill="#D0432C" />
<rect x="10" y="16" width="2" height="2" fill="#D0432C" />
<rect x="12" y="16" width="2" height="2" fill="#D0432C" />
<rect x="24" y="16" width="2" height="2" fill="#D0432C" />
<rect x="26" y="16" width="2" height="2" fill="#D0432C" />
<rect x="28" y="16" width="2" height="2" fill="#D0432C" />
<rect x="34" y="16" width="2" height="2" fill="#D0432C" />
<rect x="36" y="16" width="2" height="2" fill="#D0432C" />
<rect x="38" y="16" width="2" height="2" fill="#D0432C" />
<rect x="50" y="16" width="2" height="2" fill="#D0432C" />
<rect x="52" y="16" width="2" height="2" fill="#D0432C" />
<rect x="10" y="18" width="2" height="2" fill="#D0432C" />
<rect x="12" y="18" width="2" height="2" fill="#D0432C" />
<rect x="24" y="18" width="2" height="2" fill="#D0432C" />
<rect x="26" y="18" width="2" height="2" fill="#D0432C" />
<rect x="36" y="18" width="2" height="2" fill="#D0432C" />
<rect x="38" y="18" width="2" height="2" fill="#D0432C" />
<rect x="50" y="18" width="2" height="2" fill="#D0432C" />
<rect x="52" y="18" width="2" height="2" fill="#D0432C" />
<rect x="10" y="20" width="2" height="2" fill="#D0432C" />
<rect x="12" y="20" width="2" height="2" fill="#D0432C" />
<rect x="22" y="20" width="2" height="2" fill="#D0432C" />
<rect x="24" y="20" width="2" height="2" fill="#D0432C" />
<rect x="26" y="20" width="2" height="2" fill="#D0432C" />
<rect x="28" y="20" width="2" height="2" fill="#D0432C" />
<rect x="30" y="20" width="2" height="2" fill="#D0432C" />
<rect x="32" y="20" width="2" height="2" fill="#D0432C" />
<rect x="34" y="20" width="2" height="2" fill="#D0432C" />
<rect x="36" y="20" width="2" height="2" fill="#D0432C" />
<rect x="38" y="20" width="2" height="2" fill="#D0432C" />
<rect x="40" y="20" width="2" height="2" fill="#D0432C" />
<rect x="50" y="20" width="2" height="2" fill="#D0432C" />
<rect x="52" y="20" width="2" height="2" fill="#D0432C" />
<rect x="10" y="22" width="2" height="2" fill="#D0432C" />
<rect x="12" y="22" width="2" height="2" fill="#D0432C" />
<rect x="14" y="22" width="2" height="2" fill="#D0432C" />
<rect x="18" y="22" width="2" height="2" fill="#D0432C" />
<rect x="20" y="22" width="2" height="2" fill="#D0432C" />
<rect x="22" y="22" width="2" height="2" fill="#D0432C" />
<rect x="24" y="22" width="2" height="2" fill="#D0432C" />
<rect x="26" y="22" width="2" height="2" fill="#D0432C" />
<rect x="28" y="22" width="2" height="2" fill="#D0432C" />
<rect x="30" y="22" width="2" height="2" fill="#D0432C" />
<rect x="32" y="22" width="2" height="2" fill="#D0432C" />
<rect x="34" y="22" width="2" height="2" fill="#D0432C" />
<rect x="36" y="22" width="2" height="2" fill="#D0432C" />
<rect x="38" y="22" width="2" height="2" fill="#D0432C" />
<rect x="40" y="22" width="2" height="2" fill="#D0432C" />
<rect x="42" y="22" width="2" height="2" fill="#D0432C" />
<rect x="44" y="22" width="2" height="2" fill="#D0432C" />
<rect x="48" y="22" width="2" height="2" fill="#D0432C" />
<rect x="50" y="22" width="2" height="2" fill="#D0432C" />
<rect x="52" y="22" width="2" height="2" fill="#D0432C" />
<rect x="12" y="24" width="2" height="2" fill="#D0432C" />
<rect x="14" y="24" width="2" height="2" fill="#D0432C" />
<rect x="16" y="24" width="2" height="2" fill="#D0432C" />
<rect x="18" y="24" width="2" height="2" fill="#D0432C" />
<rect x="20" y="24" width="2" height="2" fill="#D0432C" />
<rect x="22" y="24" width="2" height="2" fill="#D0432C" />
<rect x="40" y="24" width="2" height="2" fill="#D0432C" />
<rect x="42" y="24" width="2" height="2" fill="#D0432C" />
<rect x="44" y="24" width="2" height="2" fill="#D0432C" />
<rect x="46" y="24" width="2" height="2" fill="#D0432C" />
<rect x="48" y="24" width="2" height="2" fill="#D0432C" />
<rect x="50" y="24" width="2" height="2" fill="#D0432C" />
<rect x="14" y="26" width="2" height="2" fill="#D0432C" />
<rect x="16" y="26" width="2" height="2" fill="#D0432C" />
<rect x="18" y="26" width="2" height="2" fill="#D0432C" />
<rect x="20" y="26" width="2" height="2" fill="#D0432C" />
<rect x="42" y="26" width="2" height="2" fill="#D0432C" />
<rect x="44" y="26" width="2" height="2" fill="#D0432C" />
<rect x="46" y="26" width="2" height="2" fill="#D0432C" />
<rect x="48" y="26" width="2" height="2" fill="#D0432C" />
<rect x="16" y="28" width="2" height="2" fill="#D0432C" />
<rect x="18" y="28" width="2" height="2" fill="#D0432C" />
<rect x="44" y="28" width="2" height="2" fill="#D0432C" />
<rect x="46" y="28" width="2" height="2" fill="#D0432C" />
<rect x="16" y="30" width="2" height="2" fill="#D0432C" />
<rect x="18" y="30" width="2" height="2" fill="#D0432C" />
<rect x="30" y="30" width="2" height="2" fill="#D0432C" />
<rect x="32" y="30" width="2" height="2" fill="#D0432C" />
<rect x="44" y="30" width="2" height="2" fill="#D0432C" />
<rect x="46" y="30" width="2" height="2" fill="#D0432C" />
<rect x="8" y="32" width="2" height="2" fill="#D0432C" />
<rect x="10" y="32" width="2" height="2" fill="#D0432C" />
<rect x="12" y="32" width="2" height="2" fill="#D0432C" />
<rect x="14" y="32" width="2" height="2" fill="#D0432C" />
<rect x="16" y="32" width="2" height="2" fill="#D0432C" />
<rect x="18" y="32" width="2" height="2" fill="#D0432C" />
<rect x="30" y="32" width="2" height="2" fill="#D0432C" />
<rect x="32" y="32" width="2" height="2" fill="#D0432C" />
<rect x="44" y="32" width="2" height="2" fill="#D0432C" />
<rect x="46" y="32" width="2" height="2" fill="#D0432C" />
<rect x="48" y="32" width="2" height="2" fill="#D0432C" />
<rect x="50" y="32" width="2" height="2" fill="#D0432C" />
<rect x="52" y="32" width="2" height="2" fill="#D0432C" />
<rect x="54" y="32" width="2" height="2" fill="#D0432C" />
<rect x="8" y="34" width="2" height="2" fill="#D0432C" />
<rect x="10" y="34" width="2" height="2" fill="#D0432C" />
<rect x="12" y="34" width="2" height="2" fill="#D0432C" />
<rect x="14" y="34" width="2" height="2" fill="#D0432C" />
<rect x="16" y="34" width="2" height="2" fill="#D0432C" />
<rect x="18" y="34" width="2" height="2" fill="#D0432C" />
<rect x="30" y="34" width="2" height="2" fill="#D0432C" />
<rect x="32" y="34" width="2" height="2" fill="#D0432C" />
<rect x="44" y="34" width="2" height="2" fill="#D0432C" />
<rect x="46" y="34" width="2" height="2" fill="#D0432C" />
<rect x="48" y="34" width="2" height="2" fill="#D0432C" />
<rect x="50" y="34" width="2" height="2" fill="#D0432C" />
<rect x="52" y="34" width="2" height="2" fill="#D0432C" />
<rect x="54" y="34" width="2" height="2" fill="#D0432C" />
<rect x="16" y="36" width="2" height="2" fill="#D0432C" />
<rect x="18" y="36" width="2" height="2" fill="#D0432C" />
<rect x="30" y="36" width="2" height="2" fill="#D0432C" />
<rect x="32" y="36" width="2" height="2" fill="#D0432C" />
<rect x="44" y="36" width="2" height="2" fill="#D0432C" />
<rect x="46" y="36" width="2" height="2" fill="#D0432C" />
<rect x="16" y="38" width="2" height="2" fill="#D0432C" />
<rect x="18" y="38" width="2" height="2" fill="#D0432C" />
<rect x="30" y="38" width="2" height="2" fill="#D0432C" />
<rect x="32" y="38" width="2" height="2" fill="#D0432C" />
<rect x="44" y="38" width="2" height="2" fill="#D0432C" />
<rect x="46" y="38" width="2" height="2" fill="#D0432C" />
<rect x="16" y="40" width="2" height="2" fill="#D0432C" />
<rect x="18" y="40" width="2" height="2" fill="#D0432C" />
<rect x="20" y="40" width="2" height="2" fill="#D0432C" />
<rect x="30" y="40" width="2" height="2" fill="#D0432C" />
<rect x="32" y="40" width="2" height="2" fill="#D0432C" />
<rect x="42" y="40" width="2" height="2" fill="#D0432C" />
<rect x="44" y="40" width="2" height="2" fill="#D0432C" />
<rect x="46" y="40" width="2" height="2" fill="#D0432C" />
<rect x="16" y="42" width="2" height="2" fill="#D0432C" />
<rect x="18" y="42" width="2" height="2" fill="#D0432C" />
<rect x="20" y="42" width="2" height="2" fill="#D0432C" />
<rect x="30" y="42" width="2" height="2" fill="#D0432C" />
<rect x="32" y="42" width="2" height="2" fill="#D0432C" />
<rect x="42" y="42" width="2" height="2" fill="#D0432C" />
<rect x="44" y="42" width="2" height="2" fill="#D0432C" />
<rect x="46" y="42" width="2" height="2" fill="#D0432C" />
<rect x="14" y="44" width="2" height="2" fill="#D0432C" />
<rect x="16" y="44" width="2" height="2" fill="#D0432C" />
<rect x="18" y="44" width="2" height="2" fill="#D0432C" />
<rect x="20" y="44" width="2" height="2" fill="#D0432C" />
<rect x="22" y="44" width="2" height="2" fill="#D0432C" />
<rect x="24" y="44" width="2" height="2" fill="#D0432C" />
<rect x="30" y="44" width="2" height="2" fill="#D0432C" />
<rect x="32" y="44" width="2" height="2" fill="#D0432C" />
<rect x="38" y="44" width="2" height="2" fill="#D0432C" />
<rect x="40" y="44" width="2" height="2" fill="#D0432C" />
<rect x="42" y="44" width="2" height="2" fill="#D0432C" />
<rect x="44" y="44" width="2" height="2" fill="#D0432C" />
<rect x="46" y="44" width="2" height="2" fill="#D0432C" />
<rect x="48" y="44" width="2" height="2" fill="#D0432C" />
<rect x="12" y="46" width="2" height="2" fill="#D0432C" />
<rect x="14" y="46" width="2" height="2" fill="#D0432C" />
<rect x="16" y="46" width="2" height="2" fill="#D0432C" />
<rect x="20" y="46" width="2" height="2" fill="#D0432C" />
<rect x="22" y="46" width="2" height="2" fill="#D0432C" />
<rect x="24" y="46" width="2" height="2" fill="#D0432C" />
<rect x="26" y="46" width="2" height="2" fill="#D0432C" />
<rect x="28" y="46" width="2" height="2" fill="#D0432C" />
<rect x="30" y="46" width="2" height="2" fill="#D0432C" />
<rect x="32" y="46" width="2" height="2" fill="#D0432C" />
<rect x="34" y="46" width="2" height="2" fill="#D0432C" />
<rect x="36" y="46" width="2" height="2" fill="#D0432C" />
<rect x="38" y="46" width="2" height="2" fill="#D0432C" />
<rect x="40" y="46" width="2" height="2" fill="#D0432C" />
<rect x="42" y="46" width="2" height="2" fill="#D0432C" />
<rect x="46" y="46" width="2" height="2" fill="#D0432C" />
<rect x="48" y="46" width="2" height="2" fill="#D0432C" />
<rect x="50" y="46" width="2" height="2" fill="#D0432C" />
<rect x="12" y="48" width="2" height="2" fill="#D0432C" />
<rect x="14" y="48" width="2" height="2" fill="#D0432C" />
<rect x="24" y="48" width="2" height="2" fill="#D0432C" />
<rect x="26" y="48" width="2" height="2" fill="#D0432C" />
<rect x="28" y="48" width="2" height="2" fill="#D0432C" />
<rect x="30" y="48" width="2" height="2" fill="#D0432C" />
<rect x="32" y="48" width="2" height="2" fill="#D0432C" />
<rect x="34" y="48" width="2" height="2" fill="#D0432C" />
<rect x="36" y="48" width="2" height="2" fill="#D0432C" />
<rect x="38" y="48" width="2" height="2" fill="#D0432C" />
<rect x="48" y="48" width="2" height="2" fill="#D0432C" />
<rect x="50" y="48" width="2" height="2" fill="#D0432C" />
<rect x="12" y="50" width="2" height="2" fill="#D0432C" />
<rect x="14" y="50" width="2" height="2" fill="#D0432C" />
<rect x="48" y="50" width="2" height="2" fill="#D0432C" />
<rect x="50" y="50" width="2" height="2" fill="#D0432C" />
<rect x="12" y="52" width="2" height="2" fill="#D0432C" />
<rect x="14" y="52" width="2" height="2" fill="#D0432C" />
<rect x="48" y="52" width="2" height="2" fill="#D0432C" />
<rect x="50" y="52" width="2" height="2" fill="#D0432C" />
</svg>