<?xml version="1.0" encoding="UTF-8" ?>
<svg version="1.1" width="64" height="64" xmlns="http://www.w3.org/2000/svg" shape-rendering="crispEdges">
<rect x="26" y="10" width="2" height="2" fill="#6ABE30" />
<rect x="28" y="10" width="2" height="2" fill="#6ABE30" />
<rect x="30" y="10" width="2" height="2" fill="#6ABE30" />
<rect x="32" y="10" width="2" height="2" fill="#6ABE30" />
<rect x="34" y="10" width="2" height="2" fill="#6ABE30" />
<rect x="36" y="10" width="2" height="2" fill="#6ABE30" />
<rect x="22" y="12" width="2" height="2" fill="#6ABE30" />
<rect x="24" y="12" width="2" height="2" fill="#6ABE30" />
<rect x="26" y="12" width="2" height="2" fill="#6ABE30" />
<rect x="28" y="12" width="2" height="2" fill="#6ABE30" />
<rect x="30" y="12" width="2" height="2" fill="#6ABE30" />
<rect x="32" y="12" width="2" height="2" fill="#6ABE30" />
<rect x="34" y="12" width="2" height="2" fill="#6ABE30" />
<rect x="36" y="12" width="2" height="2" fill="#6ABE30" />
<rect x="38" y="12" width="2" height="2" fill="#6ABE30" />
<rect x="52" y="12" width="2" height="2" fill="#5AAC22" />
<rect x="20" y="14" width="2" height="2" fill="#6ABE30" />
<rect x="22" y="14" width="2" height="2" fill="#6ABE30" />
<rect x="24" y="14" width="2" height="2" fill="#6ABE30" />
<rect x="26" y="14" width="2" height="2" fill="#6ABE30" />
<rect x="28" y="14" width="2" height="2" fill="#6ABE30" />
<rect x="30" y="14" width="2" height="2" fill="#6ABE30" />
<rect x="32" y="14" width="2" height="2" fill="#6ABE30" />
<rect x="34" y="14" width="2" height="2" fill="#6ABE30" />
<rect x="36" y="14" width="2" height="2" fill="#6ABE30" />
<rect x="50" y="14" width="2" height="2" fill="#5AAC22" />
<rect x="52" y="14" width="2" height="2" fill="#5AAC22" />
<rect x="54" y="14" width="2" height="2" fill="#5AAC22" />
<rect x="18" y="16" width="2" height="2" fill="#6ABE30" />
<rect x="20" y="16" width="2" height="2" fill="#6ABE30" />
<rect x="22" y="16" width="2" height="2" fill="#6ABE30" />
<rect x="24" y="16" width="2" height="2" fill="#6ABE30" />
<rect x="48" y="16" width="2" height="2" fill="#5AAC22" />
<rect x="50" y="16" width="2" height="2" fill="#5AAC22" />
<rect x="52" y="16" width="2" height="2" fill="#5AAC22" />
<rect x="16" y="18" width="2" height="2" fill="#6ABE30" />
<rect x="18" y="18" width="2" height="2" fill="#6ABE30" />
<rect x="20" y="18" width="2" height="2" fill="#6ABE30" />
<rect x="46" y="18" width="2" height="2" fill="#5AAC22" />
<rect x="48" y="18" width="2" height="2" fill="#5AAC22" />
<rect x="50" y="18" width="2" height="2" fill="#5AAC22" />
<rect x="14" y="20" width="2" height="2" fill="#6ABE30" />
<rect x="16" y="20" width="2" height="2" fill="#6ABE30" />
<rect x="18" y="20" width="2" height="2" fill="#6ABE30" />
<rect x="44" y="20" width="2" height="2" fill="#5AAC22" />
<rect x="46" y="20" width="2" height="2" fill="#5AAC22" />
<rect x="48" y="20" width="2" height="2" fill="#5AAC22" />
<rect x="12" y="22" width="2" height="2" fill="#6ABE30" />
<rect x="14" y="22" width="2" height="2" fill="#6ABE30" />
<rect x="16" y="22" width="2" height="2" fill="#6ABE30" />
<rect x="42" y="22" width="2" height="2" fill="#5AAC22" />
<rect x="44" y="22" width="2" height="2" fill="#5AAC22" />
<rect x="46" y="22" width="2" height="2" fill="#5AAC22" />
<rect x="12" y="24" width="2" height="2" fill="#6ABE30" />
<rect x="14" y="24" width="2" height="2" fill="#6ABE30" />
<rect x="16" y="24" width="2" height="2" fill="#6ABE30" />
<rect x="40" y="24" width="2" height="2" fill="#5AAC22" />
<rect x="42" y="24" width="2" height="2" fill="#5AAC22" />
<rect x="44" y="24" width="2" height="2" fill="#5AAC22" />
<rect x="10" y="26" width="2" height="2" fill="#6ABE30" />
<rect x="12" y="26" width="2" height="2" fill="#6ABE30" />
<rect x="14" y="26" width="2" height="2" fill="#6ABE30" />
<rect x="38" y="26" width="2" height="2" fill="#5AAC22" />
<rect x="40" y="26" width="2" height="2" fill="#5AAC22" />
<rect x="42" y="26" width="2" height="2" fill="#5AAC22" />
<rect x="10" y="28" width="2" height="2" fill="#6ABE30" />
<rect x="12" y="28" width="2" height="2" fill="#6ABE30" />
<rect x="14" y="28" width="2" height="2" fill="#6ABE30" />
<rect x="24" y="28" width="2" height="2" fill="#5AAC22" />
<rect x="36" y="28" width="2" height="2" fill="#5AAC22" />
<rect x="38" y="28" width="2" height="2" fill="#5AAC22" />
<rect x="40" y="28" width="2" height="2" fill="#5AAC22" />
<rect x="50" y="28" width="2" height="2" fill="#6ABE30" />
<rect x="10" y="30" width="2" height="2" fill="#6ABE30" />
<rect x="12" y="30" width="2" height="2" fill="#6ABE30" />
<rect x="14" y="30" width="2" height="2" fill="#6ABE30" />
<rect x="22" y="30" width="2" height="2" fill="#5AAC22" />
<rect x="24" y="30" width="2" height="2" fill="#5AAC22" />
<rect x="26" y="30" width="2" height="2" fill="#5AAC22" />
<rect x="34" y="30" width="2" height="2" fill="#5AAC22" />
<rect x="36" y="30" width="2" height="2" fill="#5AAC22" />
<rect x="38" y="30" width="2" height="2" fill="#5AAC22" />
<rect x="48" y="30" width="2" height="2" fill="#6ABE30" />
<rect x="50" y="30" width="2" height="2" fill="#6ABE30" />
<rect x="52" y="30" width="2" height="2" fill="#6ABE30" />
<rect x="10" y="32" width="2" height="2" fill="#6ABE30" />
<rect x="12" y="32" width="2" height="2" fill="#6ABE30" />
<rect x="14" y="32" width="2" height="2" fill="#6ABE30" />
<rect x="24" y="32" width="2" height="2" fill="#5AAC22" />
<rect x="26" y="32" width="2" height="2" fill="#5AAC22" />
<rect x="28" y="32" width="2" height="2" fill="#5AAC22" />
<rect x="32" y="32" width="2" height="2" fill="#5AAC22" />
<rect x="34" y="32" width="2" height="2" fill="#5AAC22" />
<rect x="36" y="32" width="2" height="2" fill="#5AAC22" />
<rect x="48" y="32" width="2" height="2" fill="#6ABE30" />
<rect x="50" y="32" width="2" height="2" fill="#6ABE30" />
<rect x="52" y="32" width="2" height="2" fill="#6ABE30" />
<rect x="10" y="34" width="2" height="2" fill="#6ABE30" />
<rect x="12" y="34" width="2" height="2" fill="#6ABE30" />
<rect x="14" y="34" width="2" height="2" fill="#6ABE30" />
<rect x="26" y="34" width="2" height="2" fill="#5AAC22" />
<rect x="28" y="34" width="2" height="2" fill="#5AAC22" />
<rect x="30" y="34" width="2" height="2" fill="#5AAC22" />
<rect x="32" y="34" width="2" height="2" fill="#5AAC22" />
<rect x="34" y="34" width="2" height="2" fill="#5AAC22" />
<rect x="48" y="34" width="2" height="2" fill="#6ABE30" />
<rect x="50" y="34" width="2" height="2" fill="#6ABE30" />
<rect x="52" y="34" width="2" height="2" fill="#6ABE30" />
<rect x="10" y="36" width="2" height="2" fill="#6ABE30" />
<rect x="12" y="36" width="2" height="2" fill="#6ABE30" />
<rect x="14" y="36" width="2" height="2" fill="#6ABE30" />
<rect x="28" y="36" width="2" height="2" fill="#5AAC22" />
<rect x="30" y="36" width="2" height="2" fill="#5AAC22" />
<rect x="32" y="36" width="2" height="2" fill="#5AAC22" />
<rect x="48" y="36" width="2" height="2" fill="#6ABE30" />
<rect x="50" y="36" width="2" height="2" fill="#6ABE30" />
<rect x="52" y="36" width="2" height="2" fill="#6ABE30" />
<rect x="12" y="38" width="2" height="2" fill="#6ABE30" />
<rect x="14" y="38" width="2" height="2" fill="#6ABE30" />
<rect x="16" y="38" width="2" height="2" fill="#6ABE30" />
<rect x="30" y="38" width="2" height="2" fill="#5AAC22" />
<rect x="46" y="38" width="2" height="2" fill="#6ABE30" />
<rect x="48" y="38" width="2" height="2" fill="#6ABE30" />
<rect x="50" y="38" width="2" height="2" fill="#6ABE30" />
<rect x="12" y="40" width="2" height="2" fill="#6ABE30" />
<rect x="14" y="40" width="2" height="2" fill="#6ABE30" />
<rect x="16" y="40" width="2" height="2" fill="#6ABE30" />
<rect x="46" y="40" width="2" height="2" fill="#6ABE30" />
<rect x="48" y="40" width="2" height="2" fill="#6ABE30" />
<rect x="50" y="40" width="2" height="2" fill="#6ABE30" />
<rect x="14" y="42" width="2" height="2" fill="#6ABE30" />
<rect x="16" y="42" width="2" height="2" fill="#6ABE30" />
<rect x="18" y="42" width="2" height="2" fill="#6ABE30" />
<rect x="44" y="42" width="2" height="2" fill="#6ABE30" />
<rect x="46" y="42" width="2" height="2" fill="#6ABE30" />
<rect x="48" y="42" width="2" height="2" fill="#6ABE30" />
<rect x="16" y="44" width="2" height="2" fill="#6ABE30" />
<rect x="18" y="44" width="2" height="2" fill="#6ABE30" />
<rect x="20" y="44" width="2" height="2" fill="#6ABE30" />
<rect x="42" y="44" width="2" height="2" fill="#6ABE30" />
<rect x="44" y="44" width="2" height="2" fill="#6ABE30" />
<rect x="46" y="44" width="2" height="2" fill="#6ABE30" />
<rect x="18" y="46" width="2" height="2" fill="#6ABE30" />
<rect x="20" y="46" width="2" height="2" fill="#6ABE30" />
<rect x="22" y="46" width="2" height="2" fill="#6ABE30" />
<rect x="24" y="46" width="2" height="2" fill="#6ABE30" />
<rect x="38" y="46" width="2" height="2" fill="#6ABE30" />
<rect x="40" y="46" width="2" height="2" fill="#6ABE30" />
<rect x="42" y="46" width="2" height="2" fill="#6ABE30" />
<rect x="44" y="46" width="2" height="2" fill="#6ABE30" />
<rect x="20" y="48" width="2" height="2" fill="#6ABE30" />
<rect x="22" y="48" width="2" height="2" fill="#6ABE30" />
<rect x="24" y="48" width="2" height="2" fill="#6ABE30" />
<rect x="26" y="48" width="2" height="2" fill="#6ABE30" />
<rect x="28" y="48" width="2" height="2" fill="#6ABE30" />
<rect x="30" y="48" width="2" height="2" fill="#6ABE30" />
<rect x="32" y="48" width="2" height="2" fill="#6ABE30" />
<rect x="34" y="48" width="2" height="2" fill="#6ABE30" />
<rect x="36" y="48" width="2" height="2" fill="#6ABE30" />
<rect x="38" y="48" width="2" height="2" fill="#6ABE30" />
<rect x="40" y="48" width="2" height="2" fill="#6ABE30" />
<rect x="42" y="48" width="2" height="2" fill="#6ABE30" />
<rect x="22" y="50" width="2" height="2" fill="#6ABE30" />
<rect x="24" y="50" width="2" height="2" fill="#6ABE30" />
<rect x="26" y="50" width="2" height="2" fill="#6ABE30" />
<rect x="28" y="50" width="2" height="2" fill="#6ABE30" />
<rect x="30" y="50" width="2" height="2" fill="#6ABE30" />
<rect x="32" y="50" width="2" height="2" fill="#6ABE30" />
<rect x="34" y="50" width="2" height="2" fill="#6ABE30" />
<rect x="36" y="50" width="2" height="2" fill="#6ABE30" />
<rect x="38" y="50" width="2" height="2" fill="#6ABE30" />
<rect x="40" y="50" width="2" height="2" fill="#6ABE30" />
<rect x="26" y="52" width="2" height="2" fill="#6ABE30" />
<rect x="28" y="52" width="2" height="2" fill="#6ABE30" />
<rect x="30" y="52" width="2" height="2" fill="#6ABE30" />
<rect x="32" y="52" width="2" height="2" fill="#6ABE30" />
<rect x="34" y="52" width="2" height="2" fill="#6ABE30" />
<rect x="36" y="52" width="2" height="2" fill="#6ABE30" />
</svg>